<?xml version="1.0" encoding="utf-8"?>
<svg id="master-artboard" viewBox="0 0 1534.21044921875 1026.3636474609375" version="1.1" xmlns="http://www.w3.org/2000/svg" x="0px" y="0px" style="enable-background:new 0 0 1400 980;" width="1534.21044921875px" height="1026.3636474609375px"><rect id="ee-background" x="0" y="0" width="1534.21044921875" height="1026.3636474609375" style="fill: rgb(255, 191, 0); fill-opacity: 0; pointer-events: none;"/>


<g transform="matrix(1.4013879299163818, 0, 0, 1.4013879299163818, -210.8890036949131, -129.61200097901957)">
		<path class="st1" d="M401.3,807.6c-47.9,0-149-22-175.7-76.3c-53-107.7,105.4-124.1,7.5-233c-64.2-71.4-85.7-313.3,74-268.7&#10;&#9;&#9;&#9;s349.3-38.5,400.3-55.3c162-53.3,271.1,9.1,307.6,89.1c36.5,80-16.1,160.8,60.2,186.6c76.3,25.8,120.4,52.6,136.3,122.2&#10;&#9;&#9;&#9;c18.6,81.6-40.3,221-136.3,235.4C1075.3,807.6,588.9,807.6,401.3,807.6z" style="fill: rgb(136, 199, 208);"/>
		<path class="st2" d="M496.3,116.9c78.6-21.5,270.3-12.3,336.9,25.6s83.5,109.8,155.1,153.9s227.4,86.3,207.9,234.5&#10;&#9;&#9;&#9;c-19.4,148.2-145.6,233.3-257.4,247.7c-111.8,14.4-640.1-4.9-688.3-92.2s-48.2-107.6-48.2-107.6s-22.6-169.6,41-214.7&#10;&#9;&#9;&#9;S350.1,270.7,347,248.2C337.3,177.4,417.6,138.4,496.3,116.9z" style="opacity: 0.5; fill: rgb(169, 220, 224);"/>
		<g>
			<path d="M 744.099976 302.399994 H 912.099976 V 457.599991 H 744.099976 V 302.399994 Z" class="st3" style="fill: rgb(188, 190, 192);"/>
			<path d="M 744.099976 302.399994 H 912.099976 V 322.699993 H 744.099976 V 302.399994 Z" class="st4" style="fill: rgb(46, 148, 151);"/>
			<path d="M 751.799988 330.100006 H 776.299988 V 382.000008 H 751.799988 V 330.100006 Z" class="st0" style="fill: rgb(255, 255, 255);"/>
			<path d="M 751.799988 330.100006 H 776.299988 V 338.100006 H 751.799988 V 330.100006 Z" class="st5" style="fill: rgb(133, 224, 222);"/>
			<path d="M 751.799988 390.899994 H 776.299988 V 442.799995 H 751.799988 V 390.899994 Z" class="st0" style="fill: rgb(255, 255, 255);"/>
			<path d="M 751.799988 390.899994 H 776.299988 V 399.899994 H 751.799988 V 390.899994 Z" class="st5" style="fill: rgb(133, 224, 222);"/>
			<path d="M 883.200012 330.100006 H 901.300013 V 346.200006 H 883.200012 V 330.100006 Z" class="st5" style="fill: rgb(133, 224, 222);"/>
			<path d="M 883.200012 410.299988 H 901.300013 V 426.399988 H 883.200012 V 410.299988 Z" class="st5" style="fill: rgb(133, 224, 222);"/>
			<path d="M 783.799988 328.799988 H 867.499985 V 387.199989 H 783.799988 V 328.799988 Z" class="st0" style="fill: rgb(255, 255, 255);"/>
			<path d="M 783.799988 390.899994 H 867.499985 V 453.799995 H 783.799988 V 390.899994 Z" class="st0" style="fill: rgb(255, 255, 255);"/>
			<path d="M 880.099976 350.399994 H 904.999975 V 355.099994 H 880.099976 V 350.399994 Z" class="st6" style="fill: rgb(1, 157, 146);"/>
			<path d="M 880.099976 359.299988 H 904.999975 V 363.999988 H 880.099976 V 359.299988 Z" class="st6" style="fill: rgb(1, 157, 146);"/>
			<path d="M 880.099976 368.299988 H 904.999975 V 372.999988 H 880.099976 V 368.299988 Z" class="st6" style="fill: rgb(1, 157, 146);"/>
			<path d="M 880.099976 377.200012 H 904.999975 V 381.900012 H 880.099976 V 377.200012 Z" class="st6" style="fill: rgb(1, 157, 146);"/>
			<path d="M 880.099976 386.200012 H 904.999975 V 390.900012 H 880.099976 V 386.200012 Z" class="st6" style="fill: rgb(1, 157, 146);"/>
			<path d="M 880.099976 395.100006 H 904.999975 V 399.800006 H 880.099976 V 395.100006 Z" class="st6" style="fill: rgb(1, 157, 146);"/>
			<path d="M 903.200012 318 A 2 2 0 0 1 901.200012 320 A 2 2 0 0 1 899.200012 318 A 2 2 0 0 1 901.200012 316 A 2 2 0 0 1 903.200012 318 Z" class="st0" style="fill: rgb(255, 255, 255);"/>
			<path d="M 895.700012 318 A 2 2 0 0 1 893.700012 320 A 2 2 0 0 1 891.700012 318 A 2 2 0 0 1 893.700012 316 A 2 2 0 0 1 895.700012 318 Z" class="st0" style="fill: rgb(255, 255, 255);"/>
			<path d="M 888.200012 318 A 2 2 0 0 1 886.200012 320 A 2 2 0 0 1 884.200012 318 A 2 2 0 0 1 886.200012 316 A 2 2 0 0 1 888.200012 318 Z" class="st0" style="fill: rgb(255, 255, 255);"/>
			<path d="M 880.700012 318 A 2 2 0 0 1 878.700012 320 A 2 2 0 0 1 876.700012 318 A 2 2 0 0 1 878.700012 316 A 2 2 0 0 1 880.700012 318 Z" class="st0" style="fill: rgb(255, 255, 255);"/>
		</g>
		<g>
			<path d="M 646 393.100006 H 814 V 548.300003 H 646 V 393.100006 Z" class="st3" style="fill: rgb(188, 190, 192);"/>
			<path d="M 646 393.100006 H 814 V 413.400005 H 646 V 393.100006 Z" class="st7" style="fill: rgb(235, 27, 75);"/>
			<path d="M 651.700012 406.100006 H 666.600012 V 409.300006 H 651.700012 V 406.100006 Z" class="st8" style="fill: rgb(190, 30, 45);"/>
			<path d="M 672.099976 406.100006 H 686.999975 V 409.300006 H 672.099976 V 406.100006 Z" class="st8" style="fill: rgb(190, 30, 45);"/>
			<path d="M 692.5 406.100006 H 707.4 V 409.300006 H 692.5 V 406.100006 Z" class="st8" style="fill: rgb(190, 30, 45);"/>
			<path d="M 712.900024 406.100006 H 727.800024 V 409.300006 H 712.900024 V 406.100006 Z" class="st8" style="fill: rgb(190, 30, 45);"/>
			<path d="M 733.299988 406.100006 H 748.199987 V 409.300006 H 733.299988 V 406.100006 Z" class="st8" style="fill: rgb(190, 30, 45);"/>
			<path d="M 753.700012 406.100006 H 768.600012 V 409.300006 H 753.700012 V 406.100006 Z" class="st8" style="fill: rgb(190, 30, 45);"/>
			<path d="M 774.099976 406.100006 H 788.999975 V 409.300006 H 774.099976 V 406.100006 Z" class="st8" style="fill: rgb(190, 30, 45);"/>
			<path d="M 794.5 406.100006 H 809.4 V 409.300006 H 794.5 V 406.100006 Z" class="st8" style="fill: rgb(190, 30, 45);"/>
			<path d="M 653.799988 420.799988 H 678.299988 V 470.799988 H 653.799988 V 420.799988 Z" class="st0" style="fill: rgb(255, 255, 255);"/>
			<path d="M 653.799988 480.799988 H 678.299988 V 530.799988 H 653.799988 V 480.799988 Z" class="st0" style="fill: rgb(255, 255, 255);"/>
			<path d="M 787.700012 420.799988 H 801.100012 V 436.899988 H 787.700012 V 420.799988 Z" class="st5" style="fill: rgb(133, 224, 222);"/>
			<path d="M 685.700012 419.5 H 769.400009 V 477.900002 H 685.700012 V 419.5 Z" class="st0" style="fill: rgb(255, 255, 255);"/>
			<path d="M 685.700012 481.600006 H 769.400009 V 544.500008 H 685.700012 V 481.600006 Z" class="st0" style="fill: rgb(255, 255, 255);"/>
			<path d="M 782 441.100006 H 806.9 V 445.800006 H 782 V 441.100006 Z" class="st9" style="fill: rgb(167, 169, 172);"/>
			<path d="M 782 450 H 806.9 V 454.7 H 782 V 450 Z" class="st0" style="fill: rgb(255, 255, 255);"/>
			<path d="M 782 459 H 806.9 V 463.7 H 782 V 459 Z" class="st9" style="fill: rgb(167, 169, 172);"/>
			<path d="M 782 467.899994 H 806.9 V 472.599994 H 782 V 467.899994 Z" class="st0" style="fill: rgb(255, 255, 255);"/>
			<path d="M 782 476.899994 H 806.9 V 481.599994 H 782 V 476.899994 Z" class="st9" style="fill: rgb(167, 169, 172);"/>
			<path d="M 782 485.799988 H 806.9 V 490.499988 H 782 V 485.799988 Z" class="st0" style="fill: rgb(255, 255, 255);"/>
		</g>
		<g>
			<path d="M 282.799988 304.600006 H 450.799988 V 481.800003 H 282.799988 V 304.600006 Z" class="st10" style="fill: rgb(211, 244, 241);"/>
			<path d="M 282.799988 304.600006 H 450.799988 V 346.900005 H 282.799988 V 304.600006 Z" class="st11" style="fill: rgb(52, 70, 118);"/>
			<path d="M 330.900013 325.700012 A 21.200001 21.200001 0 0 1 309.700012 346.900013 A 21.200001 21.200001 0 0 1 288.500011 325.700012 A 21.200001 21.200001 0 0 1 309.700012 304.500011 A 21.200001 21.200001 0 0 1 330.900013 325.700012 Z" class="st12" style="fill: rgb(249, 196, 166);"/>
			<path d="M 337.299988 341.700012 H 356.599987 V 344.900012 H 337.299988 V 341.700012 Z" class="st13" style="fill: rgb(39, 170, 225);"/>
			<path d="M 358.100006 341.700012 H 377.400005 V 344.900012 H 358.100006 V 341.700012 Z" class="st13" style="fill: rgb(39, 170, 225);"/>
			<path d="M 379 341.700012 H 398.299999 V 344.900012 H 379 V 341.700012 Z" class="st13" style="fill: rgb(39, 170, 225);"/>
			<path d="M 399.799988 341.700012 H 419.099987 V 344.900012 H 399.799988 V 341.700012 Z" class="st13" style="fill: rgb(39, 170, 225);"/>
			<path d="M 420.600006 341.700012 H 439.900005 V 344.900012 H 420.600006 V 341.700012 Z" class="st13" style="fill: rgb(39, 170, 225);"/>
			<path d="M 337.299988 354.200012 H 439.899986 V 404.200012 H 337.299988 V 354.200012 Z" class="st0" style="fill: rgb(255, 255, 255);"/>
			<path d="M 292.399994 354.200012 H 324.799995 V 384.000011 H 292.399994 V 354.200012 Z" class="st9" style="fill: rgb(167, 169, 172);"/>
			<path d="M 337.299988 416.100006 H 439.899986 V 466.100006 H 337.299988 V 416.100006 Z" class="st0" style="fill: rgb(255, 255, 255);"/>
			<path d="M 292.399994 416.100006 H 324.799995 V 445.900005 H 292.399994 V 416.100006 Z" class="st9" style="fill: rgb(167, 169, 172);"/>
		</g>
		<g>
			<path d="M 351.399994 423.5 H 519.399994 V 578.699997 H 351.399994 V 423.5 Z" class="st10" style="fill: rgb(211, 244, 241);"/>
			<path d="M 351.399994 423.5 H 519.399994 V 443.799999 H 351.399994 V 423.5 Z" class="st11" style="fill: rgb(52, 70, 118);"/>
			<path d="M 357.100006 436.5 H 372.000006 V 439.7 H 357.100006 V 436.5 Z" class="st13" style="fill: rgb(39, 170, 225);"/>
			<path d="M 377.5 436.5 H 392.4 V 439.7 H 377.5 V 436.5 Z" class="st13" style="fill: rgb(39, 170, 225);"/>
			<path d="M 397.899994 436.5 H 412.799994 V 439.7 H 397.899994 V 436.5 Z" class="st13" style="fill: rgb(39, 170, 225);"/>
			<path d="M 418.299988 436.5 H 433.199987 V 439.7 H 418.299988 V 436.5 Z" class="st13" style="fill: rgb(39, 170, 225);"/>
			<path d="M 438.700012 436.5 H 453.600012 V 439.7 H 438.700012 V 436.5 Z" class="st13" style="fill: rgb(39, 170, 225);"/>
			<path d="M 459.100006 436.5 H 474.000006 V 439.7 H 459.100006 V 436.5 Z" class="st13" style="fill: rgb(39, 170, 225);"/>
			<path d="M 479.5 436.5 H 494.4 V 439.7 H 479.5 V 436.5 Z" class="st13" style="fill: rgb(39, 170, 225);"/>
			<path d="M 499.899994 436.5 H 514.799994 V 439.7 H 499.899994 V 436.5 Z" class="st13" style="fill: rgb(39, 170, 225);"/>
			<path d="M 484 451.200012 H 508.5 V 501.200012 H 484 V 451.200012 Z" class="st0" style="fill: rgb(255, 255, 255);"/>
			<path d="M 484 511.200012 H 508.5 V 561.200012 H 484 V 511.200012 Z" class="st0" style="fill: rgb(255, 255, 255);"/>
			<path d="M 379.299988 451.200012 H 396.799988 V 467.300013 H 379.299988 V 451.200012 Z" class="st9" style="fill: rgb(167, 169, 172);"/>
			<path d="M 406 449.899994 H 474.800003 V 572.399994 H 406 V 449.899994 Z" class="st0" style="fill: rgb(255, 255, 255);"/>
			<path d="M 364.399994 471.399994 H 396.799995 V 476.099994 H 364.399994 V 471.399994 Z" class="st9" style="fill: rgb(167, 169, 172);"/>
			<path d="M 364.399994 480.399994 H 396.799995 V 485.099994 H 364.399994 V 480.399994 Z" class="st9" style="fill: rgb(167, 169, 172);"/>
			<path d="M 364.399994 489.299988 H 396.799995 V 493.999988 H 364.399994 V 489.299988 Z" class="st9" style="fill: rgb(167, 169, 172);"/>
			<path d="M 364.399994 498.299988 H 396.799995 V 502.999988 H 364.399994 V 498.299988 Z" class="st9" style="fill: rgb(167, 169, 172);"/>
			<path d="M 364.399994 507.200012 H 396.799995 V 511.900012 H 364.399994 V 507.200012 Z" class="st9" style="fill: rgb(167, 169, 172);"/>
			<path d="M 364.399994 516.200012 H 396.799995 V 520.900012 H 364.399994 V 516.200012 Z" class="st9" style="fill: rgb(167, 169, 172);"/>
		</g>
		<g>
			<path class="st14" d="M1015.1,704.8c0,0-5.6-5-5.3-10.1c0.2-5.1,1.2-8.4,0-11.3c-1.2-3-3.1-5.3-1.6-8c1.4-2.7,1.5-4,1.7-5.9&#10;&#9;&#9;&#9;&#9;c0.1-1.9,3.3-2.1,3.8,0c0.5,2.1-0.1,6.7,2.2,8.2c2.4,1.4,3.6,2.6,3.2,4.3s-1.8,5.2,0.3,8.2s3.3,6.4,2.4,9.7&#10;&#9;&#9;&#9;&#9;C1020.8,703,1015.1,704.8,1015.1,704.8z" style="fill: rgb(60, 188, 176);"/>
			<path class="st14" d="M1009.6,717.1c0,0-5.8-4.5-8.2-5.7s-6-0.2-8-4.4s-0.8-4.6-3.7-7.3c-2.8-2.7-4.6-4.7-4.4-6.8&#10;&#9;&#9;&#9;&#9;c0.2-2.1,0.8-7.1,0-7.9c-0.8-0.8,0.9-4.4,5.1,0.8c4.2,5.1,3.1,7.4,7.8,8.9s16.7,7.8,16,11.6&#10;&#9;&#9;&#9;&#9;C1013.5,710.1,1009.6,717.1,1009.6,717.1z" style="fill: rgb(60, 188, 176);"/>
			<path class="st6" d="M1010.7,720.7c0,0-6.9-5.1-7.6-7.9s-1.2-8.8-3.7-10.3c-2.5-1.5-5.9-5.4-6.7-8.4c-0.8-3-0.1-6.3-3.3-9.6&#10;&#9;&#9;&#9;&#9;s-2.8-11,0-11c2.8,0,5,4.7,8.6,5.1c3.7,0.4,6.7,4.4,7.2,6.7c0.5,2.4,3.8,6.6,6.6,7.8c2.8,1.2,4.4,5.1,4.4,7.2&#10;&#9;&#9;&#9;&#9;c0,2.1,2.4,9.2,2.7,10.4c0.4,1.2-1.3,9.9-1.3,9.9H1010.7z" style="fill: rgb(1, 157, 146);"/>
			<path class="st14" d="M1023.1,713.8c0,0-1.4-6.9,1.1-7.6c2.5-0.7,8.3-5.9,9.7-9c1.4-3.1,3.2-5.9,6.5-6.3s7.7-3.7,9.2-6&#10;&#9;&#9;&#9;&#9;c1.5-2.4,5.1-4.3,6.6-4c1.5,0.2-0.2,4.7-2,7c-1.8,2.2-0.7,5.1-2.9,8.5s-7.1,3.1-8.4,5.9s-1.1,5.4-3.1,7s-4.4,2.6-4.7,4.6&#10;&#9;&#9;&#9;&#9;c-0.2,2-0.5,4.7-4.3,5S1023.1,713.8,1023.1,713.8z" style="fill: rgb(60, 188, 176);"/>
			<path class="st5" d="M1016.1,721.4c0,0-1.8-10.1-0.7-12.9s0.8-8.8,0.7-10.4c-0.1-1.7,6.5-15,8.3-18.5c1.8-3.4,1.7-11.6,5.1-12.5&#10;&#9;&#9;&#9;&#9;c3.4-0.9,6.9,9.8,5.1,15.8c-1.8,6-1.9,10.4-1.7,13.7s-3.7,5.1-3.7,8.6s3.7,3.9,1.5,8.4c-2.2,4.5-7.3,8.5-7.3,8.5L1016.1,721.4z" style="fill: rgb(133, 224, 222);"/>
			<path d="M 1021.7000122070312 724 L 996.2000122070312 724 L 996.2000122070312 741.2000122070312 L 1006.2999877929688 773 L 1021.7000122070312 773 L 1037.199951171875 773 L 1047.300048828125 741.2000122070312 L 1047.300048828125 724 Z" class="st15" style="fill: rgb(132, 50, 72);"/>
			<path d="M 1047.300048828125 724 L 1033.9000244140625 724 L 1021.7000122070312 724 L 1014.2000122070312 724 L 1014.2000122070312 741.2000122070312 L 1022 773 L 1033.9000244140625 773 L 1037.199951171875 773 L 1047.300048828125 741.2000122070312 Z" class="st16" style="fill: rgb(149, 60, 80);"/>
			<path d="M 992.200012 717.099976 H 1051.300011 V 727.599976 H 992.200012 V 717.099976 Z" class="st16" style="fill: rgb(149, 60, 80);"/>
			<path d="M 996.200012 727.5 H 1047.300011 V 732.5 H 996.200012 V 727.5 Z" class="st15" style="fill: rgb(132, 50, 72);"/>
		</g>
		<path class="st11" d="M614.3,326.1c0,0,15.2,1.2,21.2,23.9c6,22.7-3.3,44.2,3.3,50.8c6.5,6.5,36.5,28.3,22.3,54.6&#10;&#9;&#9;&#9;c-14.2,26.4-25.2,40.6-16.2,47.9c9,7.3,11.5,18.8,7.5,26.2c-4,7.3-11.3,14.8-31.9,11.9c-20.6-2.9-55.2-25.2-60-27.7&#10;&#9;&#9;&#9;c-4.8-2.5-39.8,18.3-39.8,18.3s-30.3-19.2-26.9-55.7c2.2-23.9,14.8-53.4,12.3-58.6c-2.5-5.2-6-44.3-4.5-49.1&#10;&#9;&#9;&#9;C503.1,363.8,614.3,326.1,614.3,326.1z" style="fill: rgb(52, 70, 118);"/>
		<path class="st17" d="M523.6,421c0,0-9,62.5,12.9,77.5c21.9,15,82.7,25,82.7,25s8.6-9.2,5.8-18.8c-2.8-9.6-3.3-20,4.3-29.6&#10;&#9;&#9;&#9;c7.6-9.6-0.9-50.3-17.2-61.8C595.8,401.8,523.6,421,523.6,421z" style="fill: rgb(39, 56, 94);"/>
		<path class="st14" d="M654.2,535.4c0,0,28.4,46.5,51.4,118.3c5.1,16,11.9,25.4,20,28.4s42.9,10.2,42.9,10.2l-1.9,26.2l-2.2,21.4&#10;&#9;&#9;&#9;c0,0-12.7,3.8-30.8-0.8c-18.1-4.6-47.3-16.5-55.8-32.7c-8.5-16.2-30-56.2-30-56.2L654.2,535.4z" style="fill: rgb(60, 188, 176);"/>
		<path class="st12" d="M534.4,421.9c0,0,11.5,57.9-11.5,77.6c-23.1,19.6-23.1,19.6-23.1,19.6s-11.5,11.5-12.3,20&#10;&#9;&#9;&#9;c-0.8,8.5,60.8,61.5,94.2,49.6s58.1-53.1,43.1-67.3c-15-14.2-26.5-18.1-31.2-35.4c-4.6-17.3-2.7-48.7-2.7-48.7L534.4,421.9z" style="fill: rgb(249, 196, 166);"/>
		<path class="st18" d="M593.1,483.6c-2.1-17-2.3-42-2.1-45.5l-56.1-13.7c0.5,2.9,1.3,8.1,1.8,14.6c1.1,2.8,2.4,5.5,3.9,7.8&#10;&#9;&#9;&#9;c5.6,8.5,17.1,23.2,33.1,31.9C580.8,482.5,589.2,483.9,593.1,483.6z" style="fill: rgb(226, 169, 141);"/>
		<path class="st14" d="M576.3,535.6c0,0,11.2,1.9,21.5-6.5c10.4-8.5,16.1-17,16.1-17s30.6,14.5,39,21.8c8.5,7.3,0,56.4,6.2,76.4&#10;&#9;&#9;&#9;c6.2,20,7.7,29.2,0,45.8c-7.7,16.5-19.2,57.7-13.5,78.9c5.8,21.2,25,55.4,25,55.4l-202.9,8.1c0,0,26.1-85,19.6-118.5&#10;&#9;&#9;&#9;c-6.5-33.5-29.6-89.6-31.5-110.4s0.8-30.4,6.5-35.8c5.8-5.4,5.8-5.4,5.8-5.4l43.2-19.2C511.5,509.1,559,534.5,576.3,535.6z" style="fill: rgb(60, 188, 176);"/>
		<path class="st19" d="M545.3,707.1c37.2-11.7,76.5-3.8,99.5,3.3c2.1-20.1,9.1-42.9,14.4-54.3c3.7-7.9,5.2-14.1,5.2-20.6&#10;&#9;&#9;&#9;c-14.4-11.2-51.9-29.6-98.1-18.1c-40,10-69.3,29.3-84.2,40.8c2.3,7.8,4.2,15.2,5.4,21.7c2.3,12,0.5,30.6-2.9,49.5&#10;&#9;&#9;&#9;C498.7,723.2,518.9,715.3,545.3,707.1z" style="fill: rgb(244, 105, 94);"/>
		<path class="st20" d="M599.9,717.6c0,0-2.6,16.6,10.6,17.2c5.3,0.2,19.4-2.6,21.7,4.1c0.8,2.2-17.7,2.5-25.5,7.1&#10;&#9;&#9;&#9;c-4.6,2.7-32.8,8.1-39,4.2s8.8-10.3,9.2-10.5C577.4,739.4,599.9,717.6,599.9,717.6z" style="fill: rgb(232, 175, 146);"/>
		<path class="st14" d="M487.5,579.5c3.9,20.8-14.2,58.9-22.7,74.3s-19.2,46.5-18.8,49.6c0.4,3.1,25,5,48.5,3.5&#10;&#9;&#9;&#9;c23.5-1.5,56.9,0.7,59.2,0.5s4.7,6,4.7,6s3.7,34.6-11.3,45c-15,10.4-85.8,5-121.6-1.9s-50.4-21.2-38.5-64.6s62.6-150.2,71.4-152.7&#10;&#9;&#9;&#9;C467.3,536.7,483.6,558.7,487.5,579.5z" style="fill: rgb(60, 188, 176);"/>
		<path class="st12" d="M543.8,717.8c0,0,18.3-1.7,24.4-6.3c6.2-4.6,36-34,38.7-34c2.7,0,8.1,4,17.3,17.5&#10;&#9;&#9;&#9;c9.2,13.5,17.1,21.9,16,22.9c-1.2,1-11.9-4.8-16-7.3c-4-2.5-4-2.5-4-2.5s1.5,15.8,2.1,20c0.6,4.2-0.8,10-8.5,9.2&#10;&#9;&#9;&#9;c-7.7-0.8-13.3-5-15.6-5s-11.6,17.7-21.4,20.4c-9.8,2.7-20.5-1.6-29.4-2.9s-14-1.3-14-1.3S531.4,726.2,543.8,717.8z" style="fill: rgb(249, 196, 166);"/>
		<path d="M 401.299988 773 H 1075.299988 V 807.599998 H 401.299988 V 773 Z" class="st21" style="fill: rgb(100, 120, 137);"/>
		<path d="M 738.299988 572.200012 H 988.299988 V 755.700012 H 738.299988 V 572.200012 Z" class="st22" style="fill: rgb(223, 229, 234);"/>
		<path d="M 738.299988 572.200012 H 743.399988 V 755.700012 H 738.299988 V 572.200012 Z" class="st23" style="fill: rgb(154, 161, 165);"/>
		<path d="M 635.599976 755.700012 H 740.899979 V 773.000011 H 635.599976 V 755.700012 Z" class="st23" style="fill: rgb(154, 161, 165);"/>
		
			<path d="M 740.799988 755.700012 H 980.899994 V 773.000011 H 740.799988 V 755.700012 Z" transform="matrix(-1 -1.224647e-16 1.224647e-16 -1 1721.7909 1528.6934)" class="st24" style="fill: rgb(171, 180, 186);"/>
		<path class="st12" d="M621.1,344.6c9.1,31.6,2.7,91.9-23,121.7c-8.5,9.9-24.4,2.2-44.6-13.1c-18-13.6-41.9-59-36.3-100.5&#10;&#9;&#9;&#9;C522.8,311.1,604.2,285.8,621.1,344.6z" style="fill: rgb(249, 196, 166);"/>
		<path class="st11" d="M557.4,350.4c0,0,17,18.2,42.8,10c17.5-5.6,7.3,21.4,35.4,28.3c0,0,21.1,4.2,14.2-30.8&#10;&#9;&#9;&#9;c-5.6-28.7-39.5-41.4-57.7-47.5c-18.2-6.2-56.7-3.8-66.2,15.1c0,0-13.1,1.3-21.8,27.4c-8.7,26.2,8.4,54.6,12.3,61.3&#10;&#9;&#9;&#9;c3.9,6.7,17,15.6,17,15.6s0.5-16.9,4.8-23.3c4.4-6.4,14.2-13.3,18-28C559.9,363.7,557.4,350.4,557.4,350.4z" style="fill: rgb(52, 70, 118);"/>
		<path class="st12" d="M540.4,403.7c0,0-8-15.6-15.8-5.1c-3.2,4.2,1.8,33.1,11.1,31.3S540.4,403.7,540.4,403.7z" style="fill: rgb(249, 196, 166);"/>
		<path class="st11" d="M567.7,400.2c0,0,4.6-8.1,12.4-7.3c7.8,0.8,15.3,7.8,15.6,8.8c0.4,1-12.1-5.7-15.9-5.9&#10;&#9;&#9;&#9;C576.1,395.7,567.7,400.2,567.7,400.2z" style="fill: rgb(52, 70, 118);"/>
		<path class="st11" d="M632.2,402.1c0,0-4.3-8.1-11.6-7.3c-7.3,0.8-14.2,7.8-14.6,8.8c-0.4,1,11.2-5.7,14.8-5.9&#10;&#9;&#9;&#9;C624.5,397.6,632.2,402.1,632.2,402.1z" style="fill: rgb(52, 70, 118);"/>
		<path d="M 619.9 409.899994 A 3.9 4.8 0 0 1 616 414.699994 A 3.9 4.8 0 0 1 612.1 409.899994 A 3.9 4.8 0 0 1 616 405.099994 A 3.9 4.8 0 0 1 619.9 409.899994 Z" class="st11" style="fill: rgb(52, 70, 118);"/>
		<path d="M 588.9 409.299988 A 3.9 4.8 0 0 1 585 414.099988 A 3.9 4.8 0 0 1 581.1 409.299988 A 3.9 4.8 0 0 1 585 404.499988 A 3.9 4.8 0 0 1 588.9 409.299988 Z" class="st11" style="fill: rgb(52, 70, 118);"/>
		<path class="st18" d="M600.9,413.2c0,0,5.7,10.8,5.2,13c-0.5,2.2-8.2,4.3-8.2,4.3s5-3.6,5.4-6&#10;&#9;&#9;&#9;C603.6,422.2,600.9,413.2,600.9,413.2z" style="fill: rgb(226, 169, 141);"/>
		<path class="st18" d="M585,441.3c0,0,8.1,2.9,17,0.9c0,0-4.7,5.3-9.6,4.9S585,441.3,585,441.3z" style="fill: rgb(226, 169, 141);"/>
		<path d="M 585.499988 426.5 A 7.7 5.5 0 0 1 577.799988 432 A 7.7 5.5 0 0 1 570.099988 426.5 A 7.7 5.5 0 0 1 577.799988 421 A 7.7 5.5 0 0 1 585.499988 426.5 Z" class="st25" style="opacity: 0.5; fill: rgb(239, 164, 158);"/>
		<path d="M 619.899988 427.299988 A 5.6 4.6 0 0 1 614.299988 431.899988 A 5.6 4.6 0 0 1 608.699988 427.299988 A 5.6 4.6 0 0 1 614.299988 422.699988 A 5.6 4.6 0 0 1 619.899988 427.299988 Z" class="st25" style="opacity: 0.5; fill: rgb(239, 164, 158);"/>
		<path class="st26" d="M579.1,773c0,0,7.9-12.3,21.7-13.7s33.9,9.1,33.9,13.7H579.1z" style="fill: rgb(182, 193, 198);"/>
		<path class="st22" d="M603.7,759.2c-4.9,2-8.6,5.1-11.1,7.7c-1.5,1.6-0.4,4.2,1.8,4.2h39.5C630.2,766.4,615.5,759.3,603.7,759.2z" style="fill: rgb(223, 229, 234);"/>
		<path d="M 882.7 653.799988 A 9.7 9.7 0 0 1 873 663.499988 A 9.7 9.7 0 0 1 863.3 653.799988 A 9.7 9.7 0 0 1 873 644.099988 A 9.7 9.7 0 0 1 882.7 653.799988 Z" class="st26" style="fill: rgb(182, 193, 198);"/>
	</g>

</svg>